<svg width="46" height="46" viewBox="0 0 46 46" fill="none" xmlns="http://www.w3.org/2000/svg">
<g id="Group 356">
<g id="Group">
<path id="Vector" d="M23.472 45.9987C35.9132 45.9987 45.9987 35.9132 45.9987 23.472C45.9987 11.0309 35.9132 0.945312 23.472 0.945312C11.0309 0.945312 0.945312 11.0309 0.945312 23.472C0.945312 35.9132 11.0309 45.9987 23.472 45.9987Z" fill="white"/>
</g>
<g id="Group_2">
<path id="Vector_2" d="M14.1445 26.9523L17.4815 35.9989L32.2835 15.4375L14.1445 26.9523Z" fill="#0094D4"/>
<path id="Vector_3" d="M17.8411 28.957L17.5234 36.0864L25.3339 29.4583L17.8411 28.957Z" fill="#007AAE"/>
<path id="Vector_4" d="M35.9042 11.9621L6.72489 23.0521C5.90213 23.3659 5.92127 24.5407 6.75933 24.8201L14.2828 27.3611L31.4154 16.3055L17.8456 28.9607L28.4113 36.9778C29.5096 37.8121 31.1054 37.2495 31.4383 35.914L37.1479 13.0718C37.3316 12.3371 36.6122 11.6942 35.9004 11.9659L35.9042 11.9621Z" fill="#00AFE5"/>
</g>
</g>
</svg>
