<svg width="36" height="36" viewBox="0 0 36 36" fill="none" xmlns="http://www.w3.org/2000/svg">
<path d="M22 23.875C22 23.6679 22.1679 23.5 22.375 23.5H33.125C33.3321 23.5 33.5 23.6679 33.5 23.875V24C33.5 27.1756 30.9256 29.75 27.75 29.75C24.5744 29.75 22 27.1756 22 24V23.875Z" stroke="white" stroke-width="2"/>
<path d="M2.5 23.875C2.5 23.6679 2.66789 23.5 2.875 23.5H13.625C13.8321 23.5 14 23.6679 14 23.875V24C14 27.1756 11.4256 29.75 8.25 29.75C5.07436 29.75 2.5 27.1756 2.5 24V23.875Z" stroke="white" stroke-width="2"/>
<path d="M3.75 20.25L7.33085 11.8947C7.67719 11.0866 8.82281 11.0866 9.16915 11.8947L12.75 20.25" stroke="white" stroke-width="2" stroke-linecap="round"/>
<path d="M23.25 20.25L26.8309 11.8947C27.1772 11.0866 28.3228 11.0866 28.6691 11.8947L32.25 20.25" stroke="white" stroke-width="2" stroke-linecap="round"/>
<path d="M6 11.25C11.25 11.2498 12.75 5.25073 18 5.25C23.25 5.24927 24.75 11.2495 30 11.25" stroke="white" stroke-width="2" stroke-linecap="round"/>
</svg>
