<svg width="36" height="36" viewBox="0 0 36 36" fill="none" xmlns="http://www.w3.org/2000/svg">
<path d="M17.3103 33.0932L4.06034 20.4741C3.40666 19.8516 3.84729 18.75 4.75 18.75H7.25C7.80228 18.75 8.25 18.3023 8.25 17.75V3.25C8.25 2.69772 8.69771 2.25 9.25 2.25H26.75C27.3023 2.25 27.75 2.69772 27.75 3.25V17.75C27.75 18.3023 28.1977 18.75 28.75 18.75H31.25C32.1527 18.75 32.5933 19.8516 31.9396 20.4741L18.6897 33.0932C18.3034 33.461 17.6965 33.461 17.3103 33.0932Z" stroke="white" stroke-width="2" stroke-linecap="round"/>
<path d="M14.25 11.5C15.6307 11.5 16.75 10.3807 16.75 9C16.75 7.61929 15.6307 6.5 14.25 6.5C12.8693 6.5 11.75 7.61929 11.75 9C11.75 10.3807 12.8693 11.5 14.25 11.5Z" stroke="white" stroke-width="2"/>
<circle cx="21.75" cy="16.5" r="2.5" stroke="white" stroke-width="2"/>
<path d="M15 18.75L21 6.75" stroke="white" stroke-width="2" stroke-linecap="round"/>
</svg>
