<svg width="36" height="36" viewBox="0 0 36 36" fill="none" xmlns="http://www.w3.org/2000/svg">
<circle cx="18" cy="18" r="9.125" stroke="white" stroke-width="2"/>
<path d="M5.97051 21.2276L5.00526 21.4889C5.02803 21.573 5.03449 21.7433 4.94495 22.0603C4.85639 22.3739 4.7088 22.7176 4.528 23.1299L4.52798 23.1299L4.52551 23.1356L4.50844 23.1752C4.35428 23.5326 4.16515 23.9711 4.05027 24.379C3.94925 24.7376 3.79927 25.409 4.14157 26.0038C4.48696 26.6049 5.14507 26.8156 5.5188 26.9102C5.94761 27.0187 6.44221 27.0723 6.84308 27.1157L6.85366 27.1169C6.85473 27.117 6.85579 27.1171 6.85686 27.1172C7.30105 27.1682 7.66764 27.2111 7.98176 27.2894C8.30082 27.369 8.43889 27.457 8.49365 27.5117C8.54934 27.5674 8.63694 27.705 8.71611 28.0218C8.79431 28.3347 8.8372 28.7013 8.88812 29.1487C8.88822 29.1496 8.88833 29.1505 8.88843 29.1515L8.88966 29.163C8.93308 29.5639 8.98664 30.0586 9.09516 30.4875C9.18978 30.8614 9.40049 31.5201 10.0022 31.8654L10.0139 31.8722L10.0258 31.8785C10.2863 32.0188 10.567 32.0754 10.8441 32.0754C11.2394 32.0754 11.6311 31.9617 11.9383 31.8535C12.2386 31.7477 12.5504 31.6123 12.8197 31.4954C12.8371 31.4878 12.8543 31.4804 12.8713 31.473L12.8872 31.4661C13.2166 31.3244 13.5022 31.2016 13.7742 31.1101C14.0529 31.0164 14.2513 30.9796 14.3904 30.9796C14.4227 30.9796 14.4487 30.9814 14.4681 30.9837C14.4867 30.986 14.4951 30.9883 14.4946 30.9882L14.5093 30.9925L14.5242 30.9964C14.5912 31.0139 14.7229 31.0786 14.9377 31.3011C15.1531 31.5243 15.3683 31.8147 15.6423 32.1875L15.6423 32.1875L15.646 32.1925C15.6579 32.2084 15.6699 32.2245 15.682 32.2409C15.9185 32.5586 16.2078 32.9475 16.5098 33.2556C16.7875 33.539 17.303 34 18 34C18.697 34 19.2125 33.539 19.4902 33.2556C19.7922 32.9475 20.0815 32.5586 20.318 32.2409C20.3301 32.2245 20.3421 32.2084 20.354 32.1925L20.3577 32.1875C20.6303 31.8166 20.846 31.5271 21.0612 31.3048C21.2755 31.0836 21.4109 31.0141 21.4856 30.9938L21.4956 30.9911L21.5055 30.9881C21.5088 30.9872 21.5353 30.9796 21.6095 30.9796C21.7487 30.9796 21.9471 31.0164 22.2258 31.1101C22.4978 31.2016 22.7834 31.3244 23.1128 31.4661L23.1254 31.4716C23.4128 31.5997 23.7428 31.7448 24.0643 31.8571C24.3751 31.9656 24.7642 32.0754 25.1559 32.0754C25.38 32.0754 25.6992 32.0449 26.0105 31.858C26.6025 31.5107 26.8109 30.8587 26.9048 30.4875C27.0134 30.0586 27.0669 29.5639 27.1103 29.1629L27.1115 29.1524C27.1116 29.1513 27.1117 29.1501 27.1118 29.149C27.1628 28.7048 27.2057 28.3381 27.284 28.0239C27.3636 27.7047 27.4516 27.5666 27.5063 27.5118C27.562 27.4561 27.6995 27.3685 28.0161 27.2893C28.3289 27.2111 28.6954 27.1682 29.1427 27.1173C29.1436 27.1172 29.1445 27.1171 29.1454 27.117L29.1569 27.1157C29.5578 27.0723 30.0524 27.0187 30.4812 26.9102C30.8545 26.8157 31.5115 26.6054 31.8572 26.0059C32.2028 25.4103 32.0582 24.7401 31.9552 24.3735C31.8363 23.9502 31.6372 23.4981 31.4764 23.1329L31.4732 23.1255L31.4705 23.1194C31.2927 22.7056 31.1466 22.3655 31.0571 22.0513C30.9662 21.7318 30.9727 21.5633 30.9947 21.4819L30.9948 21.4819L30.9971 21.4729C31.0146 21.4058 31.0794 21.274 31.3018 21.0592C31.5249 20.8437 31.8153 20.6285 32.188 20.3544L32.188 20.3544L32.193 20.3507C32.2089 20.3389 32.225 20.3268 32.2413 20.3147C32.559 20.0782 32.9478 19.7887 33.2559 19.4867C33.5393 19.2089 34 18.6933 34 17.9965C34 17.2996 33.5393 16.7841 33.2559 16.5062C32.9478 16.2042 32.559 15.9148 32.2413 15.6783C32.225 15.6661 32.2089 15.6541 32.193 15.6423L32.193 15.6422L32.188 15.6386C31.8172 15.3659 31.5278 15.1502 31.3056 14.9349C31.0852 14.7213 31.0153 14.5861 30.9947 14.5111C30.972 14.427 30.9655 14.2567 31.055 13.9397C31.1436 13.6261 31.2912 13.2824 31.472 12.8701L31.4745 12.8644L31.4915 12.8248C31.6457 12.4674 31.8348 12.0289 31.9497 11.621C32.0508 11.2622 32.2008 10.5905 31.858 9.99552L30.9916 10.4947M5.97051 21.2276L5.00548 21.4898C4.98515 21.4149 4.91563 21.2794 4.69443 21.0651C4.47222 20.8498 4.18278 20.6341 3.81201 20.3614L3.80701 20.3577C3.7911 20.3459 3.77497 20.3339 3.75866 20.3217C3.44095 20.0852 3.05217 19.7958 2.74411 19.4938C2.46068 19.2159 2 18.7003 2 18.0035C2 17.3067 2.46068 16.7911 2.74411 16.5133C3.05216 16.2113 3.44093 15.9218 3.75863 15.6853C3.77496 15.6732 3.7911 15.6612 3.80703 15.6493L3.812 15.6456L3.81201 15.6456C4.18467 15.3715 4.47506 15.1563 4.69819 14.9408C4.92063 14.726 4.98536 14.5942 5.00287 14.5271L5.00522 14.5181L5.00526 14.5181C5.02731 14.4367 5.03385 14.2682 4.94288 13.9487C4.85342 13.6345 4.70726 13.2943 4.52942 12.8805L4.52682 12.8745L4.52356 12.8671C4.36279 12.5019 4.16372 12.0498 4.04482 11.6265C3.94182 11.2599 3.79724 10.5897 4.14279 9.99405C4.48851 9.39458 5.14551 9.18432 5.5188 9.08982C5.94761 8.98126 6.44221 8.92768 6.84308 8.88426L6.85722 8.88273C7.30459 8.83179 7.67112 8.78889 7.98388 8.71068C8.30052 8.6315 8.43799 8.54392 8.49365 8.48825C8.54844 8.43344 8.63638 8.29527 8.71599 7.97607C8.79435 7.66182 8.8372 7.29509 8.88817 6.8508L8.88966 6.83704C8.93308 6.43607 8.98664 5.94139 9.09516 5.51253C9.1891 5.14128 9.3975 4.48926 9.98946 4.14197C10.3007 3.95513 10.62 3.92461 10.8441 3.92461C11.2358 3.92461 11.6249 4.03443 11.9357 4.14293C12.2572 4.25519 12.5872 4.40028 12.8745 4.52838L12.8873 4.53388C13.2167 4.67559 13.5022 4.79845 13.7742 4.88986C14.0529 4.98355 14.2513 5.02037 14.3904 5.02037C14.4647 5.02037 14.4912 5.01282 14.4945 5.01185L14.5044 5.00893L14.5144 5.00621C14.5891 4.98591 14.7245 4.91643 14.9388 4.69516C15.154 4.47289 15.3697 4.18337 15.6423 3.81252L15.646 3.80752L15.646 3.80753C15.6579 3.79161 15.6699 3.77547 15.682 3.75914C15.9185 3.44137 16.2078 3.05251 16.5098 2.74438C16.7875 2.46095 17.303 2 18 2C18.697 2 19.2125 2.46095 19.4902 2.74438C19.7921 3.05249 20.0815 3.44134 20.3179 3.75911C20.3301 3.77545 20.3421 3.79159 20.354 3.80753L20.3577 3.81251L20.3577 3.81252C20.6317 4.18526 20.8469 4.47573 21.0623 4.69892C21.2771 4.92143 21.4088 4.98612 21.4758 5.0036L21.4907 5.0075L21.5054 5.0118C21.5054 5.01179 21.5137 5.01406 21.5319 5.01627C21.5513 5.01864 21.5773 5.02037 21.6095 5.02037C21.7487 5.02037 21.9471 4.98355 22.2258 4.88986C22.4978 4.79844 22.7833 4.67558 23.1127 4.53387L23.1287 4.52701C23.1457 4.51964 23.1628 4.51219 23.1802 4.50465C23.4495 4.38771 23.7614 4.25229 24.0617 4.14649C24.3689 4.03826 24.7606 3.92461 25.1559 3.92461C25.433 3.92461 25.7137 3.98117 25.9742 4.12145L25.9861 4.12784L25.9978 4.13456C26.5995 4.4799 26.8102 5.13862 26.9048 5.51253C27.0134 5.9414 27.0669 6.43608 27.1103 6.83706L27.1116 6.84854C27.1117 6.84948 27.1118 6.85043 27.1119 6.85137C27.1628 7.29875 27.2057 7.66535 27.2839 7.97819C27.3631 8.29498 27.4507 8.43255 27.5063 8.48825C27.5611 8.54302 27.6992 8.63095 28.0182 8.71055C28.3324 8.78893 28.699 8.83178 29.1432 8.88277C29.1442 8.88289 29.1453 8.88301 29.1463 8.88313L29.1569 8.88426C29.5578 8.92768 30.0524 8.98126 30.4812 9.08982C30.8551 9.18448 31.5137 9.39531 31.859 9.99715L30.9916 10.4947M5.97051 21.2276C5.79494 20.5814 5.12079 20.0826 4.40449 19.5558L4.37751 19.5357C3.6977 19.0293 3 18.5096 3 18.0035C3 17.4974 3.6977 16.9777 4.37751 16.4713L4.40449 16.4512M5.97051 21.2276C6.15309 21.9019 5.79494 22.7307 5.44382 23.5315L5.43927 23.542C5.11062 24.3044 4.77076 25.0927 5.00843 25.5053C5.25421 25.9337 6.125 26.0321 6.9677 26.1234L4.40449 16.4512M30.9916 10.4947C31.2292 10.9073 30.8894 11.6956 30.5607 12.458L30.5562 12.4685L26.1196 6.97593C26.2174 7.83534 26.3173 8.71328 26.7992 9.19527C27.2792 9.67547 28.1592 9.77643 29.0086 9.87389L29.0323 9.87661C29.875 9.96792 30.7458 10.0663 30.9916 10.4947ZM4.40449 16.4512L4.41376 16.4444C5.12665 15.9201 5.80269 15.4229 5.97051 14.7794L4.40449 16.4512ZM9.88039 29.0241C9.78261 28.1647 9.68272 27.2867 9.20084 26.8047L10.5 30.9981C10.0716 30.7523 9.97331 29.8813 9.88202 29.0384L9.88039 29.0241Z" stroke="white" stroke-width="2"/>
<path d="M14.25 18L16.5429 20.2929C16.9334 20.6834 17.5666 20.6834 17.9571 20.2929L22.5 15.75" stroke="white" stroke-width="2" stroke-linecap="round"/>
</svg>
