<svg width="24" height="24" viewBox="0 0 24 24" fill="none" xmlns="http://www.w3.org/2000/svg">
<g id="Frame 15">
<g id="Group 4">
<path id="Vector" d="M1.62988 6.00016V18.0002L11.9818 24L22.3337 18.0002V6.00016L11.9818 0L1.62988 6.00016Z" fill="#FA4045"/>
<path id="Vector_2" d="M11.9818 23.9998V11.9998L1.62988 6V18L11.9818 23.9998Z" fill="#D2181D"/>
<g id="Group">
<path id="Vector_3" d="M7.079 13.1569L5.58283 16.2911L4.61983 15.733L3.15234 10.8809L4.20953 11.494L5.14321 14.6409L6.1098 12.5952L7.079 13.1569Z" fill="white"/>
<path id="Vector_4" d="M9.71631 17.4274L10.459 19.1169L9.41161 18.5097L8.78655 17.0832L8.25274 16.7738L8.24981 17.836L7.27051 17.2684L7.28191 13.2734L8.86313 14.1898C9.17631 14.3714 9.44876 14.5896 9.67916 14.8438C9.90957 15.098 10.0875 15.3725 10.2113 15.667C10.3371 15.9624 10.3987 16.2601 10.3978 16.5608C10.3968 16.85 10.3381 17.0662 10.2192 17.2131C10.1022 17.361 9.93531 17.4333 9.71599 17.4271L9.71631 17.4274ZM9.25322 16.3291C9.35588 16.2866 9.40835 16.1734 9.409 15.9882C9.40965 15.8008 9.35784 15.627 9.25583 15.4635C9.15578 15.3035 9.00359 15.1641 8.80284 15.048L8.25926 14.7329L8.256 15.9019L8.79959 16.2169C9.00033 16.3334 9.15285 16.3707 9.25355 16.3291" fill="white"/>
</g>
<g id="Group_2">
<path id="Vector_5" d="M15.8925 13.7305L17.4385 16.8382L16.4181 17.4297L16.1427 16.8117L14.6785 17.6603L14.4074 18.595L13.4092 19.1738L14.9265 14.2906L15.8928 13.7305H15.8925ZM14.963 16.6599L15.855 16.143L15.4053 15.1222L14.963 16.6599Z" fill="white"/>
<path id="Vector_6" d="M20.1568 14.0049L20.9076 14.8277L19.8589 15.4356L19.2273 14.7388L18.6929 15.0486L18.6958 16.1099L17.7155 16.6782L17.7041 12.6809L19.287 11.7635C19.6005 11.582 19.8736 11.4838 20.1049 11.4704C20.3363 11.457 20.5156 11.525 20.6407 11.6752C20.7678 11.8244 20.831 12.0501 20.8317 12.3515C20.8326 12.641 20.775 12.925 20.657 13.2093C20.541 13.4923 20.3748 13.7579 20.1561 14.0056L20.1568 14.0049ZM19.6904 13.4445C19.7905 13.2842 19.8423 13.1105 19.8419 12.925C19.8413 12.7372 19.7888 12.624 19.6881 12.5779C19.5855 12.5353 19.4326 12.5729 19.2315 12.6891L18.6873 13.0045L18.6906 14.1747L19.2348 13.8593C19.4356 13.7429 19.5881 13.6035 19.6904 13.4445Z" fill="white"/>
</g>
<g id="Group_3">
<path id="Vector_7" d="M11.3763 4.34375L10.3057 7.65758H9.3059L8.67399 5.64062L8.01374 7.65758H7.01391L5.94336 4.34375H6.90539L7.5702 6.45984L8.26826 4.34375H9.12666L9.79147 6.47881L10.4846 4.34375H11.376H11.3763Z" fill="white"/>
<path id="Vector_8" d="M14.3611 6.93324V7.65758H11.7109V4.34375H14.2998V5.06809H12.6352V5.62656H14.1017V6.32734H12.6352V6.93324H14.3611Z" fill="white"/>
<path id="Vector_9" d="M17.8605 6.23966C17.9674 6.38001 18.0208 6.54981 18.0208 6.74872C18.0208 7.03924 17.9045 7.26335 17.6718 7.42104C17.4391 7.57873 17.1028 7.65758 16.6625 7.65758H14.8799V4.34375H16.568C16.989 4.34375 17.3097 4.42194 17.53 4.578C17.75 4.73438 17.8602 4.94507 17.8602 5.21008C17.8602 5.3681 17.8217 5.5091 17.7445 5.63375C17.6675 5.7584 17.558 5.8572 17.4166 5.92951C17.6053 5.99592 17.7529 6.0993 17.8598 6.23966H17.8605ZM15.8044 5.02065V5.65993H16.4458C16.7603 5.65993 16.9173 5.55262 16.9173 5.338C16.9173 5.12665 16.7603 5.02065 16.4458 5.02065H15.8044ZM17.0777 6.64469C17.0777 6.42058 16.9141 6.30869 16.5872 6.30869H15.8044V6.98101H16.5872C16.9141 6.98101 17.0777 6.86912 17.0777 6.64501V6.64469Z" fill="white"/>
</g>
</g>
</g>
</svg>
