<svg width="131" height="14" viewBox="0 0 131 14" fill="none" xmlns="http://www.w3.org/2000/svg">
<g id="Group 2">
<path id="Vector" d="M27.2891 0.865234V8.0228H37.2707V11.0907H29.5288V10.0689H27.2891V13.1367H39.5128V5.97674H29.5288V2.90886H37.2707V3.93311H39.5128V0.865234H27.2891Z" fill="#E6E6E6"/>
<path id="Vector_2" d="M83.7217 0.865234V3.93311H85.9614V2.80643H88.7137V13.1367H90.9534V2.80643H93.7033V3.93311H95.9455V0.865234H83.7217Z" fill="#E6E6E6"/>
<path id="Vector_3" d="M100.632 0.865234H98.3896V13.1367H100.632V0.865234Z" fill="#E6E6E6"/>
<path id="Vector_4" d="M17.1037 0.865234V3.93311H14.8615V2.80643H12.1116V13.1367H9.86948V2.80643H7.11961V3.93311H4.87988V0.865234H17.1037Z" fill="#E6E6E6"/>
<path id="Vector_5" d="M0.599633 13.1348H2.8418L2.8418 0.863258H0.599633L0.599633 13.1348Z" fill="#E6E6E6"/>
<path id="Vector_6" d="M48.477 0.455078C44.7506 0.455078 41.957 3.25958 41.957 7.00053C41.957 10.7415 44.7506 13.546 48.477 13.546C52.2034 13.546 54.997 10.7415 54.997 7.00053C54.997 3.25958 52.2034 0.455078 48.477 0.455078ZM48.477 11.2951C45.9992 11.2951 44.1992 9.488 44.1992 7.00053C44.1992 4.51307 45.9992 2.70599 48.477 2.70599C50.9548 2.70599 52.7549 4.51307 52.7549 7.00053C52.7549 9.488 50.9548 11.2951 48.477 11.2951Z" fill="#E6E6E6"/>
<path id="Vector_7" d="M109.8 0.455078C106.074 0.455078 103.28 3.25958 103.28 7.00053C103.28 10.7415 106.074 13.546 109.8 13.546C113.527 13.546 116.32 10.7415 116.32 7.00053C116.32 3.25958 113.527 0.455078 109.8 0.455078ZM109.8 11.2951C107.322 11.2951 105.522 9.488 105.522 7.00053C105.522 4.51307 107.322 2.70599 109.8 2.70599C112.278 2.70599 114.078 4.51307 114.078 7.00053C114.078 9.488 112.278 11.2951 109.8 11.2951Z" fill="#E6E6E6"/>
<path id="Vector_8" d="M81.2765 7.40825V0.865234H79.0343V7.41069C79.0343 9.6616 77.4068 11.298 75.1622 11.298C72.9176 11.298 71.29 9.66404 71.29 7.41069V0.865234H69.0479V7.41069C69.0479 10.9175 71.6665 13.5464 75.1597 13.5464C78.6529 13.5464 81.2716 10.9175 81.2716 7.41069L81.2765 7.40825Z" fill="#E6E6E6"/>
<path id="Vector_9" d="M128.745 0.865234V9.73233L121.003 0.865234H118.764V13.1367H121.003V4.26721L128.745 13.1367H130.987V0.865234H128.745Z" fill="#E6E6E6"/>
<path id="Vector_10" d="M67.6261 10.0689H65.3864V11.0907H59.6826V0.865234H57.4404V13.1367H67.6261V10.0689Z" fill="#E6E6E6"/>
</g>
</svg>
