<svg width="256" height="96" viewBox="0 0 256 96" fill="none" xmlns="http://www.w3.org/2000/svg">
<g id="&#208;&#187;&#208;&#190;&#208;&#179;&#208;&#190;&#209;&#130;&#208;&#184;&#208;&#191;" clip-path="url(#clip0_456_1921)">
<g id="Group">
<path id="Vector" d="M73.3424 38.5771C77.2421 42.2697 93.8694 44.8828 93.8694 44.8828C75.8099 31.5888 74.9477 28.293 64.5146 28.293C69.4462 31.0204 69.9296 35.3421 73.3424 38.5771Z" fill="#D9D9D9"/>
<path id="Vector_2" d="M62.3713 29.8163C64.626 21.7591 72.4184 20.4043 79.7742 22.1308C87.397 24.1147 93.0681 29.6197 99.6014 33.9771C96.6829 30.9887 93.7102 27.8038 90.4129 25.1085C90.7592 25.1943 91.1056 25.2801 91.4519 25.3623C103.205 28.2649 115.482 28.6545 127.502 27.5357C116.687 26.5884 105.882 25.7734 95.3192 23.2211C90.9035 22.3203 86.8342 20.7903 82.5196 19.8038C83.4106 18.524 84.5434 16.894 85.2144 15.9181C87.7253 12.2685 90.4382 8.91903 94.2983 6.73137C95.146 6.32386 96.3582 5.64468 97.2492 5.35871C100.33 4.079 103.682 3.32475 106.961 2.74209C113.7 1.52314 120.695 1.02627 127.499 0.34352C118.18 -0.149778 108.873 -0.403576 99.6663 1.68043C94.9729 2.69204 90.3119 4.98695 86.9424 8.46863C84.0708 11.4141 81.8486 14.9387 79.4712 18.2023C79.4712 18.2023 79.464 18.213 79.4567 18.2238C76.5238 17.2801 73.7135 16.1433 72.9198 14.8136C71.9278 13.1478 72.0793 10.5705 70.0915 9.51242C68.1037 8.45433 61.473 9.05844 60.1635 11.0281C58.8539 12.9977 64.6765 15.0602 65.8093 15.1925C68.1506 15.4713 69.4782 14.8886 70.4739 15.6465C71.365 16.3256 72.3138 17.4945 72.5555 18.5491C71.383 18.6206 70.2142 18.7957 69.0561 19.1031C60.7082 21.1836 57.9881 30.4561 59.2544 38.0558C60.0011 42.3882 61.9168 46.5097 64.5106 49.9986C61.8266 43.6 60.1418 36.558 62.3713 29.8163Z" fill="#D9D9D9"/>
<path id="Vector_3" d="M162.135 44.8828C162.135 44.8828 178.762 42.2697 182.662 38.5771C186.078 35.3421 186.562 31.0204 191.49 28.293C181.056 28.293 180.194 31.5888 162.135 44.8828Z" fill="#E41F1C"/>
<path id="Vector_4" d="M186.944 19.1027C185.786 18.7953 184.617 18.6166 183.445 18.5487C183.687 17.4942 184.632 16.3253 185.526 15.6461C186.519 14.8883 187.85 15.4709 190.191 15.1921C191.327 15.0563 197.146 12.9937 195.837 11.0277C194.527 9.05805 187.897 8.45394 185.909 9.51203C183.921 10.5737 184.073 13.1474 183.08 14.8132C182.287 16.143 179.477 17.2797 176.544 18.2234L176.529 18.2019C174.155 14.9419 171.926 11.4137 169.058 8.46824C165.692 4.98656 161.027 2.69165 156.334 1.68004C147.128 -0.403967 137.82 -0.153743 128.502 0.343129C135.309 1.02588 142.301 1.52275 149.04 2.7417C152.322 3.32436 155.67 4.07861 158.751 5.35832C159.646 5.64429 160.851 6.32347 161.702 6.73098C165.562 8.91864 168.279 12.2716 170.786 15.9178C171.464 16.8972 172.593 18.5308 173.481 19.8034C169.17 20.79 165.1 22.3235 160.681 23.2207C150.118 25.773 139.314 26.588 128.498 27.5353C140.518 28.6577 152.795 28.2645 164.548 25.3619C164.895 25.2761 165.241 25.1939 165.587 25.1081C162.29 27.8034 159.317 30.9848 156.399 33.9767C162.932 29.6193 168.603 24.1144 176.226 22.1304C183.578 20.4039 191.371 21.7587 193.629 29.8159C195.858 36.5576 194.17 43.5996 191.49 49.9982C194.084 46.5094 195.999 42.3878 196.746 38.0554C198.016 30.4557 195.292 21.1832 186.944 19.1027Z" fill="#E41F1C"/>
<path id="Vector_5" d="M128 47.6496C118.484 47.5102 108.815 47.5173 99.6016 44.8828C111.618 52.629 136.424 52.4324 149.772 48.0321C152.084 47.2242 154.419 46.327 156.403 44.8828C154.09 45.6371 151.738 46.066 149.375 46.4056C142.297 47.4279 135.154 47.621 128.004 47.6496H128Z" fill="#D9D9D9"/>
</g>
<g id="Group_2">
<path id="Vector_6" d="M7.915 80.0658V65.367H0V95.4081H2.767L18.0342 80.6234V95.3652H26.0358V65.2383H23.2255L7.915 80.0658Z" fill="#D9D9D9"/>
<path id="Vector_7" d="M43.5975 64.9824L29.9717 94.2514V95.3667H37.5403L45.2389 77.7974L53.024 95.3667H60.5927V94.2514L46.9272 64.9824H43.5975Z" fill="#D9D9D9"/>
<path id="Vector_8" d="M76.2062 64.9824L62.584 94.2514V95.3667H70.1527L71.9276 91.5955H83.865L85.6399 95.3667H93.2086V94.2514L79.5431 64.9824H76.2134H76.2062ZM74.4312 85.0396L77.8476 77.154L81.3505 85.0396H74.4312Z" fill="#D9D9D9"/>
<path id="Vector_9" d="M114.486 76.2519H105.143V65.3672H97.2275V95.3654H105.143V83.3225H114.486V95.3654H122.401V65.3672H114.486V76.2519Z" fill="#D9D9D9"/>
<path id="Vector_10" d="M151.854 64.9805L138.231 94.2495V95.3647H145.8L147.575 91.5935H159.512L161.287 95.3647H168.856V94.2495L155.191 64.9805H151.861H151.854ZM150.079 85.0377L153.495 77.1521L156.998 85.0377H150.079Z" fill="#E41F1C"/>
<path id="Vector_11" d="M192.81 79.7654C194.282 78.5644 195.188 76.3803 195.188 74.5787C195.188 69.3919 190.992 65.3633 185.757 65.3633H172.824V95.3615H187.009C193.193 95.3615 196.396 91.1184 196.439 85.8888C196.439 83.2328 195.27 81.0022 192.807 79.7619L192.81 79.7654ZM180.31 72.223H185.155C188.268 72.223 188.268 77.0666 185.198 77.0666H180.31V72.223ZM186.493 88.5518H180.31V83.4509H186.45C189.563 83.4509 189.607 88.5518 186.493 88.5518Z" fill="#E41F1C"/>
<path id="Vector_12" d="M199.517 72.2233H206.955V95.3654H214.611V72.2233H222.006V65.3672H199.517V72.2233Z" fill="#E41F1C"/>
<path id="Vector_13" d="M224.946 80.4097C224.946 101.196 256 101.196 256 80.4097C256 59.6233 224.946 59.6661 224.946 80.4097ZM232.905 80.4097C232.905 69.6107 248.085 69.6107 248.085 80.4097C248.085 91.2086 232.905 91.2944 232.905 80.4097Z" fill="#E41F1C"/>
</g>
</g>
<defs>
<clipPath id="clip0_456_1921">
<rect width="256" height="96" fill="white"/>
</clipPath>
</defs>
</svg>
