<svg width="25" height="25" viewBox="0 0 25 25" fill="none" xmlns="http://www.w3.org/2000/svg">
<g id="&#208;&#188;&#208;&#190;&#209;&#137;&#208;&#189;&#208;&#190;&#209;&#129;&#209;&#130;&#209;&#140;">
<circle id="Ellipse 48" cx="12.1973" cy="16.0469" r="2" stroke="#7F7F7F"/>
<rect id="Rectangle 594" x="10.4297" y="9.32812" width="1" height="7" rx="0.5" transform="rotate(45 10.4297 9.32812)" fill="#7F7F7F"/>
<rect id="Rectangle 596" x="7.60156" y="6.5" width="1" height="7" rx="0.5" transform="rotate(45 7.60156 6.5)" fill="#7F7F7F"/>
<rect id="Rectangle 595" x="7.60156" y="9.32812" width="1" height="5" rx="0.5" transform="rotate(45 7.60156 9.32812)" fill="#7F7F7F"/>
<path id="Vector 51" d="M10.2523 16.5765C9.19163 14.4552 7.60064 12.8642 7.60064 12.8642" stroke="#7F7F7F" stroke-linecap="round"/>
<path id="Vector 52" d="M12.7269 14.1019C10.6056 13.0412 9.01459 11.4503 9.01459 11.4503" stroke="#7F7F7F" stroke-linecap="round"/>
<rect id="Rectangle 603" width="1" height="7" rx="0.5" transform="matrix(-0.707107 0.707107 0.707107 0.707107 13.9648 9.32812)" fill="#7F7F7F"/>
<rect id="Rectangle 604" width="1" height="7" rx="0.5" transform="matrix(-0.707107 0.707107 0.707107 0.707107 16.793 6.5)" fill="#7F7F7F"/>
<rect id="Rectangle 605" width="1" height="5" rx="0.5" transform="matrix(-0.707107 0.707107 0.707107 0.707107 16.793 9.32812)" fill="#7F7F7F"/>
<path id="Vector 57" d="M14.1422 16.5765C15.2029 14.4552 16.7939 12.8642 16.7939 12.8642" stroke="#7F7F7F" stroke-linecap="round"/>
<path id="Vector 58" d="M11.6676 14.1019C13.7889 13.0412 15.3799 11.4503 15.3799 11.4503" stroke="#7F7F7F" stroke-linecap="round"/>
</g>
</svg>
