<svg width="64" height="64" viewBox="0 0 64 64" fill="none" xmlns="http://www.w3.org/2000/svg">
<g id="icons8-bmw 1">
<path id="Vector" d="M32.0007 58.6673C17.2967 58.6673 5.33398 46.7047 5.33398 32.0007C5.33398 17.2967 17.2967 5.33398 32.0007 5.33398C46.7047 5.33398 58.6673 17.2967 58.6673 32.0007C58.6673 46.7047 46.7047 58.6673 32.0007 58.6673Z" fill="#37474F"/>
<path id="Vector_2" d="M45.9672 31.9992C45.9672 24.2832 39.7139 18.0312 31.9992 18.0312C24.2846 18.0312 18.0312 24.2832 18.0312 31.9992C18.0312 39.7152 24.2832 45.9672 31.9992 45.9672C39.7152 45.9672 45.9672 39.7152 45.9672 31.9992Z" fill="white"/>
<path id="Vector_3" d="M31.9993 18.666C24.7207 18.854 18.854 24.722 18.666 31.9993H31.9993V18.666ZM31.9993 45.3353C39.278 45.1447 45.1447 39.2767 45.3327 31.9993H31.9993V45.3353Z" fill="#448AFF"/>
<path id="Vector_4" d="M20.7591 17.5928C20.6658 16.9355 20.2685 16.3808 19.6591 16.1048C19.0485 15.8275 18.3391 15.9315 17.8005 16.3102C17.7565 16.3435 17.7151 16.3808 17.6751 16.4142C17.7645 16.1088 17.7911 15.7995 17.7151 15.4915C17.6431 15.1862 17.4831 14.9075 17.2578 14.6888C16.8018 14.2422 16.1085 14.0968 15.5111 14.3195C15.2311 14.4262 14.9778 14.6075 14.7898 14.8395C14.6831 14.9742 14.5778 15.1048 14.4685 15.2422C13.9098 15.9382 13.3511 16.6355 12.7938 17.3315C12.3138 17.9315 11.8365 18.5315 11.3551 19.1302C11.3231 19.1688 11.2925 19.2128 11.2618 19.2502C11.2591 19.2502 11.3231 19.2995 11.3285 19.3022C11.5151 19.4528 11.6991 19.6008 11.8858 19.7488C12.5898 20.3142 13.2911 20.8782 13.9965 21.4408C14.6911 21.9995 15.3898 22.5568 16.0871 23.1142C16.2645 23.2582 16.4431 23.3995 16.6205 23.5395C16.6258 23.5488 16.6685 23.5888 16.6751 23.5795C16.7111 23.5355 16.7458 23.4888 16.7805 23.4475C17.2591 22.8488 17.7391 22.2528 18.2151 21.6542C18.7885 20.9355 19.3618 20.2235 19.9351 19.5062C20.2311 19.1395 20.5578 18.7875 20.6978 18.3275C20.7711 18.0862 20.7845 17.8395 20.7591 17.5928ZM14.5898 19.6115C14.2991 19.3822 14.0098 19.1475 13.7205 18.9155C13.6098 18.8275 13.4991 18.7408 13.3885 18.6502C13.3845 18.6475 13.5031 18.5048 13.5098 18.4968C14.0485 17.8195 14.5898 17.1462 15.1298 16.4715C15.2725 16.2968 15.4005 16.1048 15.6191 16.0168C15.9165 15.8915 16.2685 15.9702 16.4858 16.2088C16.6591 16.4008 16.7178 16.6635 16.6618 16.9155C16.5965 17.1408 16.4378 17.3035 16.2978 17.4808C16.0151 17.8382 15.7285 18.1928 15.4458 18.5475C15.1591 18.8995 14.8725 19.2528 14.5898 19.6115ZM18.8711 18.7822C18.6871 19.0102 18.5058 19.2382 18.3218 19.4675C17.8191 20.0968 17.3151 20.7262 16.8125 21.3528C16.8098 21.3555 16.7978 21.3768 16.7925 21.3742C16.7658 21.3528 16.7418 21.3302 16.7165 21.3102C16.5778 21.2008 16.4418 21.0928 16.3045 20.9835C16.0671 20.7915 15.8285 20.5995 15.5925 20.4102C16.0485 19.8395 16.5071 19.2702 16.9618 18.6995C17.1858 18.4195 17.4071 18.1435 17.6298 17.8635C17.7885 17.6662 17.9898 17.5235 18.2538 17.5155C18.5711 17.5075 18.8485 17.6902 18.9831 17.9742C19.0965 18.2515 19.0578 18.5488 18.8711 18.7822ZM48.6791 14.6808L47.3978 13.4915L43.2271 18.9688L44.5098 20.1582L49.0818 18.0648L46.0378 22.0675L46.9191 23.5795L53.1751 20.7075L52.2925 19.1928L48.6805 20.8488L51.2471 17.4808L50.1231 16.0795L46.2765 17.8448L48.6791 14.6808ZM29.9591 10.2795L31.4231 14.9008H32.5765L34.0378 10.2795L34.1911 14.9008L35.8085 15.1595L35.5778 8.22618L33.5005 7.96484L32.0005 12.8475L30.4978 7.96484L28.4205 8.22618L28.1898 15.1595L29.8058 14.9008L29.9591 10.2795Z" fill="#CFD8DC"/>
<path id="Vector_5" d="M32.0007 46.6673C23.9127 46.6673 17.334 40.0886 17.334 32.0007C17.334 23.9127 23.9127 17.334 32.0007 17.334C40.0886 17.334 46.6673 23.9127 46.6673 32.0007C46.6673 40.0886 40.0886 46.6673 32.0007 46.6673ZM32.0007 20.0007C25.3833 20.0007 20.0007 25.3833 20.0007 32.0007C20.0007 38.618 25.3833 44.0006 32.0007 44.0006C38.6166 44.0006 44.0006 38.618 44.0006 32.0007C44.0006 25.3833 38.6166 20.0007 32.0007 20.0007Z" fill="white"/>
</g>
</svg>
