<svg width="25" height="25" viewBox="0 0 25 25" fill="none" xmlns="http://www.w3.org/2000/svg">
<g id="&#209;&#129;&#208;&#186;&#208;&#190;&#209;&#128;&#208;&#190;&#209;&#129;&#209;&#130;&#209;&#140;">
<rect id="Rectangle 592" x="11.6973" y="9.5" width="1" height="7" rx="0.5" fill="#7F7F7F"/>
<rect id="Rectangle 593" x="11.6973" y="5.5" width="1" height="3" rx="0.5" fill="#7F7F7F"/>
<rect id="Rectangle 599" x="3.19727" y="15" width="1" height="3" rx="0.5" transform="rotate(-90 3.19727 15)" fill="#7F7F7F"/>
<rect id="Rectangle 600" x="18.1973" y="15" width="1" height="3" rx="0.5" transform="rotate(-90 18.1973 15)" fill="#7F7F7F"/>
<rect id="Rectangle 601" x="4.65234" y="19.4336" width="1" height="3" rx="0.5" transform="rotate(-120 4.65234 19.4336)" fill="#7F7F7F"/>
<rect id="Rectangle 602" x="17.6426" y="11.9336" width="1" height="3" rx="0.5" transform="rotate(-120 17.6426 11.9336)" fill="#7F7F7F"/>
<rect id="Rectangle 604" x="15.6309" y="9.55469" width="1" height="3" rx="0.5" transform="rotate(-150 15.6309 9.55469)" fill="#7F7F7F"/>
<rect id="Rectangle 605" x="4.15234" y="10.4336" width="1" height="3" rx="0.5" transform="rotate(-60 4.15234 10.4336)" fill="#7F7F7F"/>
<rect id="Rectangle 606" x="17.1426" y="17.9336" width="1" height="3" rx="0.5" transform="rotate(-60 17.1426 17.9336)" fill="#7F7F7F"/>
<rect id="Rectangle 607" x="7.26367" y="6.95508" width="1" height="3" rx="0.5" transform="rotate(-30 7.26367 6.95508)" fill="#7F7F7F"/>
<circle id="Ellipse 47" cx="12.1973" cy="17.5" r="1.5" stroke="#7F7F7F"/>
<path id="Ellipse 49" d="M19.5584 18.7499C20.3044 17.4577 20.6972 15.9919 20.6972 14.4999C20.6972 13.0078 20.3044 11.5421 19.5584 10.2499C18.8123 8.95772 17.7393 7.8847 16.4472 7.13867C15.155 6.39264 13.6892 5.99989 12.1972 5.99989C10.7051 5.99989 9.23932 6.39264 7.94715 7.13867C6.65499 7.8847 5.58197 8.95773 4.83594 10.2499C4.08991 11.5421 3.69715 13.0078 3.69715 14.4999C3.69715 15.992 4.08991 17.4577 4.83594 18.7499" stroke="#7F7F7F" stroke-linecap="round"/>
</g>
</svg>
