<svg width="72" height="78" viewBox="0 0 72 78" fill="none" xmlns="http://www.w3.org/2000/svg">
<g id="Vector" filter="url(#filter0_d_310_1097)">
<path d="M48.6001 32.1669L50.4201 30.3688C50.7967 29.9926 51.0082 29.4824 51.0082 28.9503C51.0082 28.4183 50.7967 27.9081 50.4201 27.5319C50.0434 27.1557 49.5327 26.9443 49.0001 26.9443C48.4674 26.9443 47.9567 27.1557 47.5801 27.5319L45.7801 29.3499C42.9772 27.184 39.5337 26.0088 35.9901 26.0088C32.4464 26.0088 29.0029 27.184 26.2001 29.3499L24.3801 27.5119C24.0008 27.1357 23.4875 26.9254 22.953 26.9273C22.4185 26.9292 21.9067 27.143 21.5301 27.5219C21.1534 27.9007 20.9429 28.4135 20.9448 28.9474C20.9467 29.4813 21.1608 29.9926 21.5401 30.3688L23.3801 32.1869C21.1861 34.9789 19.9956 38.4268 20.0001 41.9763C19.9935 44.5244 20.597 47.0371 21.7601 49.3049C22.9232 51.5727 24.6123 53.5299 26.6864 55.0131C28.7606 56.4964 31.1597 57.4627 33.6837 57.8316C36.2077 58.2005 38.7834 57.9612 41.196 57.1337C43.6086 56.3063 45.7881 54.9145 47.5529 53.0747C49.3177 51.2348 50.6165 49.0001 51.341 46.5569C52.0656 44.1138 52.1948 41.533 51.718 39.0298C51.2412 36.5266 50.1722 34.1735 48.6001 32.1669ZM36.0001 53.9634C33.6267 53.9634 31.3066 53.2604 29.3332 51.9432C27.3598 50.626 25.8217 48.7539 24.9135 46.5636C24.0052 44.3732 23.7676 41.963 24.2306 39.6377C24.6937 37.3125 25.8365 35.1766 27.5148 33.5002C29.193 31.8237 31.3312 30.6821 33.659 30.2196C35.9867 29.757 38.3995 29.9944 40.5923 30.9017C42.785 31.809 44.6591 33.3454 45.9777 35.3166C47.2963 37.2879 48.0001 39.6055 48.0001 41.9763C48.0001 45.1555 46.7358 48.2044 44.4853 50.4524C42.2349 52.7005 39.1827 53.9634 36.0001 53.9634ZM32.0001 23.9957H40.0001C40.5305 23.9957 41.0392 23.7852 41.4143 23.4105C41.7893 23.0359 42.0001 22.5277 42.0001 21.9978C42.0001 21.468 41.7893 20.9598 41.4143 20.5852C41.0392 20.2105 40.5305 20 40.0001 20H32.0001C31.4696 20 30.9609 20.2105 30.5858 20.5852C30.2108 20.9598 30.0001 21.468 30.0001 21.9978C30.0001 22.5277 30.2108 23.0359 30.5858 23.4105C30.9609 23.7852 31.4696 23.9957 32.0001 23.9957ZM38.0001 35.9828C38.0001 35.4529 37.7893 34.9447 37.4143 34.5701C37.0392 34.1954 36.5305 33.9849 36.0001 33.9849C35.4696 33.9849 34.9609 34.1954 34.5858 34.5701C34.2108 34.9447 34.0001 35.4529 34.0001 35.9828V39.7587C33.5472 40.1633 33.228 40.6957 33.0847 41.2855C32.9414 41.8753 32.9807 42.4947 33.1975 43.0617C33.4143 43.6286 33.7984 44.1165 34.2988 44.4607C34.7992 44.8048 35.3925 44.9891 36.0001 44.9891C36.6076 44.9891 37.2009 44.8048 37.7013 44.4607C38.2018 44.1165 38.5858 43.6286 38.8026 43.0617C39.0194 42.4947 39.0587 41.8753 38.9154 41.2855C38.7721 40.6957 38.4529 40.1633 38.0001 39.7587V35.9828Z" fill="#E41F1C"/>
</g>
<defs>
<filter id="filter0_d_310_1097" x="0" y="0" width="72" height="78" filterUnits="userSpaceOnUse" color-interpolation-filters="sRGB">
<feFlood flood-opacity="0" result="BackgroundImageFix"/>
<feColorMatrix in="SourceAlpha" type="matrix" values="0 0 0 0 0 0 0 0 0 0 0 0 0 0 0 0 0 0 127 0" result="hardAlpha"/>
<feOffset/>
<feGaussianBlur stdDeviation="10"/>
<feComposite in2="hardAlpha" operator="out"/>
<feColorMatrix type="matrix" values="0 0 0 0 0.894118 0 0 0 0 0.121569 0 0 0 0 0.109804 0 0 0 1 0"/>
<feBlend mode="normal" in2="BackgroundImageFix" result="effect1_dropShadow_310_1097"/>
<feBlend mode="normal" in="SourceGraphic" in2="effect1_dropShadow_310_1097" result="shape"/>
</filter>
</defs>
</svg>
