<svg width="24" height="24" viewBox="0 0 24 24" fill="none" xmlns="http://www.w3.org/2000/svg">
<path d="M14.4932 0H9.0789C4.63578 0 1 3.63578 1 8.0789V12.4495C1 15.6196 2.85026 18.3778 5.52347 19.6992C5.6943 19.7834 5.80272 19.9558 5.8035 20.1462C5.80506 20.8404 5.80272 22.505 5.80116 23.4083C5.80116 23.6408 5.80974 23.867 6.06872 23.9699C6.31677 24.0674 6.4681 23.9099 6.62333 23.7539C7.50946 22.863 9.18889 21.1782 9.69358 20.675C9.78718 20.5814 9.91355 20.5292 10.0462 20.5292H14.494C18.9379 20.5292 22.5729 16.8934 22.5729 12.4503V8.08046C22.5729 3.63578 18.9371 0 14.4932 0ZM14.9596 6.49073C14.2794 5.89088 13.4737 5.63035 12.5649 5.72551C12.3122 5.75125 12.1047 5.60617 12.0774 5.37917C12.047 5.13268 12.2264 4.93845 12.5251 4.91661C13.1538 4.87137 13.7693 4.93845 14.3497 5.19586C15.9207 5.89322 16.7342 7.11633 16.8185 8.82852C16.8185 8.97439 16.8302 9.12182 16.8161 9.26613C16.7896 9.5329 16.6087 9.69671 16.3801 9.67799C16.1422 9.65849 15.9893 9.44944 16.0182 9.17174C16.1289 8.09372 15.7607 7.19823 14.9596 6.49073ZM15.2444 8.79576C15.249 9.1031 15.1164 9.28797 14.884 9.29811C14.6593 9.30747 14.501 9.12104 14.4784 8.82228C14.4152 7.99466 13.8005 7.37998 12.9752 7.3207C12.6718 7.29886 12.5056 7.14753 12.5228 6.90728C12.5392 6.68029 12.7108 6.55314 13.001 6.55236C14.1687 6.55158 15.2256 7.60776 15.2444 8.79576ZM17.3115 15.742C16.9027 16.1726 16.4745 16.5868 16.0338 16.9846C15.5517 17.4199 14.9573 17.4464 14.3551 17.3567C13.2436 17.1921 12.2669 16.689 11.3504 16.0736C9.15925 14.6024 7.36047 12.7521 6.05546 10.4424C5.53985 9.52978 5.14593 8.57033 5.12097 7.49855C5.09912 6.89714 5.2996 6.39479 5.74422 5.98293C6.07262 5.67871 6.37761 5.34875 6.69665 5.0344C7.22162 4.51723 7.95018 4.49071 8.47047 5.00319C9.08046 5.60539 9.67797 6.22162 10.2536 6.85657C10.8075 7.46579 10.5657 8.40184 9.80044 8.71308C9.03444 9.02509 8.75206 9.57268 9.05394 10.3418C9.61011 11.7584 10.6156 12.7716 12.0095 13.3707C12.6687 13.6539 13.3255 13.345 13.6211 12.6851C14.0033 11.8301 14.9409 11.6523 15.5969 12.3192C16.164 12.8957 16.721 13.4823 17.2826 14.0634C17.7538 14.5517 17.7795 15.2491 17.3115 15.742ZM18.3247 10.0836C18.3021 10.3909 18.0884 10.5353 17.831 10.49C17.5892 10.4479 17.4971 10.2654 17.5587 9.94944C18.0907 7.21617 16.4012 4.6982 13.6757 4.18415C13.3153 4.11628 12.9409 4.12487 12.5727 4.10692C12.2794 4.0921 12.0977 3.96106 12.0961 3.74576C12.0938 3.50707 12.274 3.34716 12.5641 3.33468C12.6999 3.32922 12.8356 3.3339 12.9721 3.3339C15.7147 3.34872 18.1087 5.48058 18.3887 8.19747C18.4527 8.8176 18.3708 9.45568 18.3247 10.0836Z" fill="#4B3A87"/>
<path d="M15.2423 8.79418C15.247 9.10152 15.1144 9.28639 14.8819 9.29653C14.6573 9.30589 14.4989 9.11946 14.4763 8.82071C14.4131 7.99308 13.7985 7.37841 12.9732 7.31912C12.6697 7.29728 12.5036 7.14595 12.5207 6.9057C12.5371 6.67871 12.7087 6.55156 12.9989 6.55078C14.1666 6.55 15.2236 7.60618 15.2423 8.79418Z" fill="white"/>
<path d="M16.8163 9.26495C16.7898 9.53172 16.6088 9.69553 16.3803 9.67681C16.1424 9.65731 15.9895 9.44826 16.0183 9.17057C16.1291 8.09255 15.7609 7.19706 14.9598 6.48956C14.2796 5.88971 13.4738 5.62917 12.5651 5.72434C12.3124 5.75008 12.1049 5.60499 12.0776 5.378C12.0471 5.1315 12.2266 4.93727 12.5253 4.91543C13.154 4.87019 13.7695 4.93727 14.3498 5.19469C15.9208 5.89205 16.7344 7.11515 16.8187 8.82735C16.8187 8.97321 16.8304 9.12064 16.8163 9.26495Z" fill="white"/>
<path d="M17.3132 15.7425C16.9045 16.1731 16.4762 16.5873 16.0355 16.9851C15.5534 17.4204 14.959 17.4469 14.3568 17.3572C13.2453 17.1926 12.2687 16.6895 11.3521 16.074C9.16098 14.6028 7.3622 12.7526 6.05719 10.4429C5.54158 9.53022 5.14766 8.57077 5.1227 7.49899C5.10086 6.89758 5.30133 6.39523 5.74595 5.98337C6.07435 5.67915 6.37935 5.3492 6.69839 5.03484C7.22336 4.51767 7.95192 4.49115 8.4722 5.00364C9.0822 5.60583 9.67971 6.22206 10.2554 6.85702C10.8092 7.46623 10.5674 8.40228 9.80218 8.71352C9.03617 9.02554 8.7538 9.57313 9.05568 10.3422C9.61185 11.7588 10.6173 12.7721 12.0113 13.3712C12.6704 13.6543 13.3272 13.3454 13.6228 12.6855C14.005 11.8306 14.9427 11.6527 15.5987 12.3197C16.1658 12.8961 16.7227 13.4827 17.2843 14.0638C17.7555 14.5521 17.7812 15.2495 17.3132 15.7425Z" fill="white"/>
<path d="M18.3263 10.0836C18.3037 10.3909 18.09 10.5353 17.8326 10.49C17.5907 10.4479 17.4987 10.2654 17.5603 9.94944C18.0923 7.21617 16.4027 4.69819 13.6773 4.18414C13.3169 4.11628 12.9425 4.12486 12.5743 4.10692C12.281 4.0921 12.0992 3.96105 12.0977 3.74576C12.0953 3.50707 12.2755 3.34716 12.5657 3.33468C12.7014 3.32922 12.8372 3.3339 12.9737 3.3339C15.7163 3.34872 18.1102 5.48057 18.3903 8.19746C18.4542 8.8176 18.3723 9.45567 18.3263 10.0836Z" fill="white"/>
</svg>
