<svg width="40" height="40" viewBox="0 0 40 40" fill="none"
    xmlns="http://www.w3.org/2000/svg">
    <path id="Vector" d="M26.1459 0H13.875C2.66662 0 0 2.66662 0 13.8541V26.125C0 37.3333 2.64588 40 13.8541 40H26.125C37.3334 40 40 37.3541 40 26.1458V13.875C40 2.66662 37.3541 0 26.1459 0ZM32.2916 28.5416H29.375C28.2709 28.5416 27.9375 27.6458 25.9584 25.6666C24.2291 24 23.5 23.7916 23.0625 23.7916C22.4584 23.7916 22.2916 23.9583 22.2916 24.7916V27.4166C22.2916 28.125 22.0625 28.5416 20.2084 28.5416C18.4092 28.4207 16.6644 27.8742 15.1178 26.9469C13.5711 26.0197 12.2669 24.7383 11.3125 23.2083C9.04671 20.3881 7.47021 17.0781 6.70838 13.5416C6.70838 13.1041 6.875 12.7083 7.70838 12.7083H10.625C11.375 12.7083 11.6459 13.0416 11.9375 13.8125C13.3541 17.9791 15.7709 21.6041 16.75 21.6041C17.125 21.6041 17.2916 21.4375 17.2916 20.5V16.2083C17.1666 14.25 16.125 14.0833 16.125 13.375C16.1387 13.1881 16.2247 13.014 16.3647 12.8895C16.5048 12.765 16.6878 12.7 16.875 12.7083H21.4584C22.0834 12.7083 22.2916 13.0208 22.2916 13.7708V19.5625C22.2916 20.1875 22.5625 20.3958 22.75 20.3958C23.125 20.3958 23.4166 20.1875 24.1041 19.5C25.5815 17.6984 26.7886 15.6912 27.6875 13.5416C27.7792 13.283 27.9532 13.0615 28.1826 12.911C28.4121 12.7605 28.6846 12.6893 28.9584 12.7083H31.875C32.75 12.7083 32.9375 13.1458 32.75 13.7708C31.6887 16.1474 30.3757 18.4034 28.8334 20.5C28.5209 20.9791 28.3959 21.2291 28.8334 21.7916C29.125 22.2291 30.1459 23.0833 30.8334 23.8958C31.8334 24.8932 32.6637 26.0473 33.2916 27.3125C33.5416 28.125 33.125 28.5416 32.2916 28.5416Z" fill="#999999"/>
</svg>