<svg width="25" height="25" viewBox="0 0 25 25" fill="none" xmlns="http://www.w3.org/2000/svg">
<g id="&#208;&#190;&#208;&#177;&#209;&#138;&#208;&#181;&#208;&#188;">
<path id="Vector 59" d="M6.49016 10H5.19727C4.92112 10 4.69727 10.2239 4.69727 10.5V14.5C4.69727 14.7761 4.92112 15 5.19727 15H5.99016C6.12277 15 6.24994 15.0527 6.34371 15.1464L8.05082 16.8536C8.14459 16.9473 8.27176 17 8.40437 17H17.1973C17.4734 17 17.6973 16.7761 17.6973 16.5V15C17.6973 14.7239 17.9211 14.5 18.1973 14.5H18.6973C18.9734 14.5 19.1973 14.7239 19.1973 15V16C19.1973 16.2761 19.4211 16.5 19.6973 16.5H20.1973C21.0257 16.5 21.6973 15.8284 21.6973 15V12C21.6973 11.1716 21.0257 10.5 20.1973 10.5H19.6973C19.4211 10.5 19.1973 10.7239 19.1973 11V12C19.1973 12.2761 18.9734 12.5 18.6973 12.5H18.1973C17.9211 12.5 17.6973 12.2761 17.6973 12V10.5C17.6973 10.2239 17.4734 10 17.1973 10H15.9044C15.7718 10 15.6446 9.94732 15.5508 9.85355L14.8437 9.14645C14.7499 9.05268 14.6228 9 14.4902 9H7.90437C7.77176 9 7.64459 9.05268 7.55082 9.14645L6.84371 9.85355C6.74994 9.94732 6.62277 10 6.49016 10Z" stroke="#7F7F7F" stroke-linecap="round"/>
<path id="Vector 61" d="M2.69727 10.5V14.5" stroke="#7F7F7F" stroke-linecap="round"/>
<path id="Vector 65" d="M4.69727 12.5L2.69727 12.5" stroke="#7F7F7F" stroke-linecap="round"/>
<path id="Vector 66" d="M10.1973 9L10.1973 7" stroke="#7F7F7F" stroke-linecap="round"/>
<path id="Vector 67" d="M12.1973 9L12.1973 7" stroke="#7F7F7F" stroke-linecap="round"/>
<path id="Vector 64" d="M8.19727 7L14.1973 7" stroke="#7F7F7F" stroke-linecap="round"/>
</g>
</svg>
