<svg width="16" height="16" viewBox="0 0 16 16" fill="none" xmlns="http://www.w3.org/2000/svg">
<path d="M2.05661 9.21966C2.48025 9.68985 4.28647 10.0226 4.28647 10.0226C2.32467 8.32982 2.23101 7.91016 1.09766 7.91016C1.63337 8.25745 1.68588 8.80774 2.05661 9.21966Z" fill="black"/>
<path d="M0.86287 8.10126C1.1078 7.07532 1.95429 6.90281 2.75335 7.12266C3.58142 7.37527 4.19747 8.07623 4.90719 8.63107C4.59015 8.25056 4.26723 7.845 3.90904 7.50181C3.94666 7.51273 3.98428 7.52366 4.0219 7.53413C5.29868 7.90372 6.63229 7.95333 7.93807 7.81087C6.76318 7.69025 5.58947 7.58647 4.44201 7.26148C3.96234 7.14678 3.52028 6.95197 3.05158 6.82634C3.14838 6.6634 3.27143 6.45584 3.34432 6.33158C3.61708 5.86686 3.91178 5.44037 4.33111 5.16181C4.4232 5.10992 4.55488 5.02344 4.65167 4.98702C4.98635 4.82408 5.35041 4.72804 5.70664 4.65384C6.43869 4.49863 7.19857 4.43537 7.93768 4.34843C6.92542 4.28562 5.91434 4.2533 4.91424 4.51866C4.40439 4.64747 3.89807 4.93969 3.53204 5.38302C3.22009 5.75807 2.97869 6.20687 2.72043 6.62243C2.72043 6.62243 2.71965 6.6238 2.71887 6.62516C2.40026 6.505 2.09498 6.36026 2.00876 6.19093C1.90099 5.97883 1.91745 5.65065 1.70152 5.51593C1.48558 5.3812 0.765289 5.45812 0.623033 5.70892C0.480776 5.95971 1.11329 6.22234 1.23634 6.23918C1.49068 6.27469 1.6349 6.20049 1.74306 6.29699C1.83985 6.38347 1.94292 6.53231 1.96918 6.66658C1.84181 6.67569 1.71484 6.69799 1.58904 6.73713C0.682208 7.00204 0.386722 8.18274 0.524276 9.15042C0.605398 9.70207 0.813492 10.2269 1.09526 10.6711C0.803695 9.85638 0.620681 8.9597 0.86287 8.10126Z" fill="black"/>
<path d="M11.6992 10.0226C11.6992 10.0226 13.5054 9.68985 13.9291 9.21966C14.3002 8.80774 14.3527 8.25745 14.888 7.91016C13.7547 7.91016 13.661 8.32982 11.6992 10.0226Z" fill="#E41F1C"/>
<path d="M14.3959 6.73733C14.2701 6.69819 14.1431 6.67543 14.0158 6.66678C14.042 6.53251 14.1447 6.38367 14.2419 6.29719C14.3497 6.20069 14.4943 6.27488 14.7486 6.23938C14.872 6.22208 15.5042 5.95946 15.3619 5.70911C15.2197 5.45832 14.4994 5.3814 14.2834 5.51612C14.0675 5.65131 14.084 5.97903 13.9762 6.19113C13.89 6.36045 13.5847 6.5052 13.2661 6.62536L13.2645 6.62263C13.0066 6.20752 12.7645 5.75827 12.4529 5.38322C12.0873 4.93989 11.5806 4.64767 11.0707 4.51886C10.0706 4.2535 9.05952 4.28536 8.04727 4.34863C8.78677 4.43556 9.54625 4.49883 10.2783 4.65404C10.6349 4.72823 10.9986 4.82427 11.3333 4.98722C11.4305 5.02364 11.5614 5.11012 11.6538 5.16201C12.0732 5.44057 12.3683 5.86751 12.6406 6.33178C12.7143 6.45649 12.837 6.66451 12.9334 6.82654C12.4651 6.95217 12.023 7.14743 11.5429 7.26168C10.3955 7.58667 9.22176 7.69045 8.04688 7.81106C9.35266 7.95399 10.6863 7.90392 11.963 7.53432C12.0007 7.5234 12.0383 7.51293 12.0759 7.50201C11.7177 7.8452 11.3948 8.2503 11.0778 8.63127C11.7875 8.07643 12.4035 7.37547 13.2316 7.12286C14.0303 6.90301 14.8768 7.07552 15.1221 8.10146C15.3643 8.9599 15.1809 9.85657 14.8897 10.6713C15.1715 10.2271 15.3795 9.70227 15.4607 9.15061C15.5986 8.18293 15.3027 7.00224 14.3959 6.73733Z" fill="#E41F1C"/>
<path d="M7.99512 10.3718C6.96131 10.3541 5.91105 10.355 4.91016 10.0195C6.21555 11.0059 8.91019 10.9808 10.3602 10.4205C10.6114 10.3177 10.8649 10.2034 11.0805 10.0195C10.8293 10.1156 10.5738 10.1702 10.3171 10.2134C9.54819 10.3436 8.77224 10.3682 7.99551 10.3718H7.99512Z" fill="black"/>
</svg>